<?xml version="1.0" standalone="no"?>
<!DOCTYPE svg PUBLIC "-//W3C//DTD SVG 20010904//EN"
 "http://www.w3.org/TR/2001/REC-SVG-20010904/DTD/svg10.dtd">
<svg version="1.0" xmlns="http://www.w3.org/2000/svg"
 width="99.000000pt" height="192.000000pt" viewBox="0 0 99.000000 192.000000"
 preserveAspectRatio="xMidYMid meet">
<metadata>
Created by potrace 1.10, written by Peter Selinger 2001-2011
</metadata>
<g transform="translate(0.000000,192.000000) scale(0.100000,-0.100000)"
fill="#000000" stroke="none">
<path d="M476 1778 c-2 -7 -11 -38 -20 -69 -9 -31 -16 -68 -16 -83 0 -15 -7
-43 -15 -63 -8 -19 -15 -48 -15 -62 0 -39 -30 -124 -49 -139 -11 -9 -48 -13
-129 -11 -118 3 -142 -5 -122 -40 6 -12 28 -14 106 -12 125 3 137 -4 128 -72
-10 -72 -20 -78 -131 -76 -96 2 -121 -6 -110 -35 5 -12 27 -16 99 -18 l93 -3
3 -30 c1 -16 -3 -48 -11 -70 l-14 -40 -78 -5 c-59 -4 -81 -9 -89 -22 -16 -26
-2 -33 77 -38 82 -6 77 4 53 -115 -13 -66 -21 -103 -47 -212 -7 -27 -15 -71
-19 -99 -4 -28 -13 -61 -19 -72 -6 -11 -11 -36 -11 -54 0 -18 -6 -53 -15 -78
-15 -47 -45 -164 -48 -190 -2 -13 51 -15 423 -15 372 0 425 2 423 15 -3 24
-33 142 -45 180 -7 19 -15 55 -18 80 -7 42 -11 63 -41 185 -6 28 -15 70 -19
95 -4 25 -12 63 -18 85 -5 22 -20 85 -32 140 -11 55 -28 123 -35 151 -8 28
-15 61 -15 73 0 12 -6 34 -14 49 -8 15 -17 50 -21 77 -4 28 -12 58 -16 67 -7
13 -3 21 15 33 20 13 46 16 122 14 77 -2 98 0 104 12 20 35 -4 43 -122 40 -81
-2 -118 2 -129 11 -20 16 -49 100 -49 140 0 16 -5 38 -11 50 -6 11 -15 45 -20
77 -17 108 -34 156 -58 159 -11 2 -23 -3 -25 -10z m48 -195 c3 -10 8 -36 11
-58 4 -22 14 -63 23 -92 20 -67 9 -83 -58 -83 -67 0 -78 16 -58 83 9 29 19 70
23 92 10 64 15 75 35 75 10 0 21 -8 24 -17z m66 -299 c5 -5 14 -32 19 -59 13
-67 2 -75 -107 -75 -90 0 -126 11 -118 38 2 9 7 34 11 55 4 26 13 41 28 47 28
12 153 8 167 -6z m-122 -226 c2 -20 -4 -52 -12 -72 -14 -35 -17 -36 -66 -36
-70 0 -71 7 -25 138 3 9 20 12 52 10 47 -3 48 -4 51 -40z m188 -33 c13 -38 24
-82 24 -97 0 -15 5 -39 11 -55 6 -15 15 -50 19 -78 5 -27 13 -68 19 -90 5 -22
17 -76 26 -120 9 -44 25 -116 35 -160 11 -44 21 -91 24 -105 3 -14 12 -54 21
-90 8 -36 18 -77 21 -92 l7 -28 -362 0 c-262 0 -361 3 -361 11 0 7 4 28 9 48
5 20 16 65 24 101 9 36 24 103 35 150 11 47 28 121 37 165 9 44 21 98 26 120
6 22 14 63 19 91 13 85 22 94 86 94 l56 0 -5 -32 c-4 -18 -10 -55 -15 -83 -4
-27 -13 -66 -20 -85 -13 -41 -42 -170 -42 -187 0 -19 306 -18 313 0 7 17 -8
103 -27 156 -9 24 -14 47 -11 52 3 4 -4 34 -15 66 -11 31 -20 69 -20 84 0 15
-6 44 -14 65 -7 22 -16 67 -20 101 -7 67 -3 73 48 70 26 -2 31 -8 52 -72z
m-118 -145 c10 -59 22 -109 55 -232 27 -100 21 -108 -77 -108 -90 0 -116 15
-98 54 7 15 12 37 12 50 0 13 6 46 14 72 7 27 21 78 29 114 32 136 49 149 65
50z"/>
</g>
</svg>
