<?xml version="1.0" standalone="no"?>
<!DOCTYPE svg PUBLIC "-//W3C//DTD SVG 20010904//EN"
 "http://www.w3.org/TR/2001/REC-SVG-20010904/DTD/svg10.dtd">
<svg version="1.0" xmlns="http://www.w3.org/2000/svg"
 width="72.000000pt" height="72.000000pt" viewBox="0 0 72.000000 72.000000"
 preserveAspectRatio="xMidYMid meet">
<metadata>
Created by potrace 1.10, written by Peter Selinger 2001-2011
</metadata>
<g transform="translate(0.000000,72.000000) scale(0.100000,-0.100000)"
fill="#000000" stroke="none">
<path d="M347 633 c-3 -10 -11 -42 -17 -70 l-12 -53 -49 0 c-37 0 -49 -4 -49
-15 0 -11 12 -15 44 -15 39 0 44 -2 39 -20 -4 -16 -14 -20 -45 -20 -27 0 -38
-4 -35 -12 2 -8 16 -12 36 -10 29 3 32 1 29 -20 -2 -18 -10 -24 -35 -26 -42
-4 -43 -22 -2 -22 24 0 29 -4 25 -17 -6 -22 -45 -180 -50 -208 -2 -11 -7 -28
-11 -37 -7 -17 4 -18 145 -18 141 0 152 1 145 17 -4 10 -8 26 -11 37 -2 10
-12 57 -23 105 -12 47 -29 123 -39 169 l-19 82 43 0 c32 0 44 4 44 15 0 11
-12 15 -49 15 l-49 0 -12 53 c-18 79 -21 87 -30 87 -5 0 -11 -8 -13 -17z m23
-67 c0 -13 3 -31 6 -40 4 -12 0 -16 -16 -16 -16 0 -20 4 -16 16 3 9 6 27 6 40
0 13 5 24 10 24 6 0 10 -11 10 -24z m23 -106 c4 -17 0 -20 -33 -20 -33 0 -37
3 -33 20 4 14 14 20 33 20 19 0 29 -6 33 -20z m-45 -62 c-2 -14 -11 -24 -24
-26 -18 -3 -21 1 -17 22 7 34 46 37 41 4z m62 10 c1 -7 16 -82 34 -166 l33
-152 -117 0 -117 0 25 118 c31 149 28 142 51 142 18 0 18 -3 7 -47 -7 -27 -16
-58 -20 -70 -7 -22 -5 -23 54 -23 l62 0 -5 28 c-6 33 -12 57 -26 108 -6 22
-11 47 -11 57 0 19 30 24 30 5z m-16 -156 c5 -8 -3 -12 -27 -12 l-35 0 8 38
c24 105 22 102 35 41 6 -30 15 -61 19 -67z"/>
</g>
</svg>
